<mxfile host="65bd71144e">
    <diagram id="yGKFn3D03RFovCp2P05H" name="Visitor View">
        <mxGraphModel dx="869" dy="235" grid="1" gridSize="10" guides="1" tooltips="1" connect="1" arrows="1" fold="1" page="1" pageScale="1" pageWidth="850" pageHeight="1100" math="0" shadow="0">
            <root>
                <mxCell id="0"/>
                <mxCell id="1" parent="0"/>
                <mxCell id="XhQDC6N8RoV4bCvyvq7E-1" value="" style="whiteSpace=wrap;html=1;fillColor=#0B0C10;" parent="1" vertex="1">
                    <mxGeometry x="335" y="270" width="205" height="280" as="geometry"/>
                </mxCell>
                <object label="Item" id="XhQDC6N8RoV4bCvyvq7E-24">
                    <mxCell style="whiteSpace=wrap;html=1;strokeColor=#45A29E;fillColor=#1F2833;" parent="1" vertex="1">
                        <mxGeometry x="380" y="340" width="30" height="30" as="geometry"/>
                    </mxCell>
                </object>
                <mxCell id="pDI6ZPoX4qIVBJIhAqDQ-3" value="" style="edgeStyle=isometricEdgeStyle;html=1;strokeColor=#66FCF1;elbow=vertical;exitX=0.812;exitY=1.062;exitDx=0;exitDy=0;exitPerimeter=0;entryX=1;entryY=0.139;entryDx=0;entryDy=0;entryPerimeter=0;" parent="1" source="XhQDC6N8RoV4bCvyvq7E-55" edge="1" target="XhQDC6N8RoV4bCvyvq7E-1">
                    <mxGeometry relative="1" as="geometry">
                        <mxPoint x="540" y="340" as="targetPoint"/>
                        <Array as="points"/>
                    </mxGeometry>
                </mxCell>
                <mxCell id="pDI6ZPoX4qIVBJIhAqDQ-15" value="" style="edgeStyle=elbowEdgeStyle;elbow=vertical;html=1;strokeColor=#66FCF1;entryX=0.75;entryY=0;entryDx=0;entryDy=0;" parent="1" source="XhQDC6N8RoV4bCvyvq7E-25" target="pDI6ZPoX4qIVBJIhAqDQ-5" edge="1">
                    <mxGeometry relative="1" as="geometry"/>
                </mxCell>
                <mxCell id="XhQDC6N8RoV4bCvyvq7E-25" value="Nav Bar (Login)" style="whiteSpace=wrap;html=1;fillColor=#1F2833;strokeColor=#45A29E;" parent="1" vertex="1">
                    <mxGeometry x="340" y="310" width="190" height="10" as="geometry"/>
                </mxCell>
                <mxCell id="XhQDC6N8RoV4bCvyvq7E-70" style="edgeStyle=none;html=1;strokeColor=#66FCF1;" parent="1" source="XhQDC6N8RoV4bCvyvq7E-26" edge="1">
                    <mxGeometry relative="1" as="geometry">
                        <mxPoint x="610" y="340" as="targetPoint"/>
                    </mxGeometry>
                </mxCell>
                <object label="Item" id="XhQDC6N8RoV4bCvyvq7E-26">
                    <mxCell style="whiteSpace=wrap;html=1;strokeColor=#45A29E;fillColor=#1F2833;" parent="1" vertex="1">
                        <mxGeometry x="500" y="340" width="30" height="30" as="geometry"/>
                    </mxCell>
                </object>
                <object label="Item" id="XhQDC6N8RoV4bCvyvq7E-27">
                    <mxCell style="whiteSpace=wrap;html=1;strokeColor=#45A29E;fillColor=#1F2833;" parent="1" vertex="1">
                        <mxGeometry x="460" y="340" width="30" height="30" as="geometry"/>
                    </mxCell>
                </object>
                <object label="Item" id="XhQDC6N8RoV4bCvyvq7E-28">
                    <mxCell style="whiteSpace=wrap;html=1;strokeColor=#45A29E;fillColor=#1F2833;" parent="1" vertex="1">
                        <mxGeometry x="340" y="340" width="30" height="30" as="geometry"/>
                    </mxCell>
                </object>
                <object label="Item" id="XhQDC6N8RoV4bCvyvq7E-29">
                    <mxCell style="whiteSpace=wrap;html=1;strokeColor=#45A29E;fillColor=#1F2833;" parent="1" vertex="1">
                        <mxGeometry x="420" y="340" width="30" height="30" as="geometry"/>
                    </mxCell>
                </object>
                <object label="Item" id="XhQDC6N8RoV4bCvyvq7E-30">
                    <mxCell style="whiteSpace=wrap;html=1;strokeColor=#45A29E;fillColor=#1F2833;" parent="1" vertex="1">
                        <mxGeometry x="380" y="380" width="30" height="30" as="geometry"/>
                    </mxCell>
                </object>
                <object label="Item" id="XhQDC6N8RoV4bCvyvq7E-31">
                    <mxCell style="whiteSpace=wrap;html=1;strokeColor=#45A29E;fillColor=#1F2833;" parent="1" vertex="1">
                        <mxGeometry x="500" y="380" width="30" height="30" as="geometry"/>
                    </mxCell>
                </object>
                <object label="Item" id="XhQDC6N8RoV4bCvyvq7E-32">
                    <mxCell style="whiteSpace=wrap;html=1;strokeColor=#45A29E;fillColor=#1F2833;" parent="1" vertex="1">
                        <mxGeometry x="460" y="380" width="30" height="30" as="geometry"/>
                    </mxCell>
                </object>
                <object label="Item" id="XhQDC6N8RoV4bCvyvq7E-33">
                    <mxCell style="whiteSpace=wrap;html=1;strokeColor=#45A29E;fillColor=#1F2833;" parent="1" vertex="1">
                        <mxGeometry x="340" y="380" width="30" height="30" as="geometry"/>
                    </mxCell>
                </object>
                <object label="Item" id="XhQDC6N8RoV4bCvyvq7E-34">
                    <mxCell style="whiteSpace=wrap;html=1;strokeColor=#45A29E;fillColor=#1F2833;" parent="1" vertex="1">
                        <mxGeometry x="420" y="380" width="30" height="30" as="geometry"/>
                    </mxCell>
                </object>
                <object label="Item" id="XhQDC6N8RoV4bCvyvq7E-35">
                    <mxCell style="whiteSpace=wrap;html=1;strokeColor=#45A29E;fillColor=#1F2833;" parent="1" vertex="1">
                        <mxGeometry x="380" y="420" width="30" height="30" as="geometry"/>
                    </mxCell>
                </object>
                <object label="Item" id="XhQDC6N8RoV4bCvyvq7E-36">
                    <mxCell style="whiteSpace=wrap;html=1;strokeColor=#45A29E;fillColor=#1F2833;" parent="1" vertex="1">
                        <mxGeometry x="500" y="420" width="30" height="30" as="geometry"/>
                    </mxCell>
                </object>
                <object label="Item" id="XhQDC6N8RoV4bCvyvq7E-37">
                    <mxCell style="whiteSpace=wrap;html=1;strokeColor=#45A29E;fillColor=#1F2833;" parent="1" vertex="1">
                        <mxGeometry x="460" y="420" width="30" height="30" as="geometry"/>
                    </mxCell>
                </object>
                <object label="Item" id="XhQDC6N8RoV4bCvyvq7E-38">
                    <mxCell style="whiteSpace=wrap;html=1;strokeColor=#45A29E;fillColor=#1F2833;" parent="1" vertex="1">
                        <mxGeometry x="340" y="420" width="30" height="30" as="geometry"/>
                    </mxCell>
                </object>
                <object label="Item" id="XhQDC6N8RoV4bCvyvq7E-39">
                    <mxCell style="whiteSpace=wrap;html=1;strokeColor=#45A29E;fillColor=#1F2833;" parent="1" vertex="1">
                        <mxGeometry x="420" y="420" width="30" height="30" as="geometry"/>
                    </mxCell>
                </object>
                <object label="Item" id="XhQDC6N8RoV4bCvyvq7E-40">
                    <mxCell style="whiteSpace=wrap;html=1;strokeColor=#45A29E;fillColor=#1F2833;" parent="1" vertex="1">
                        <mxGeometry x="380" y="460" width="30" height="30" as="geometry"/>
                    </mxCell>
                </object>
                <object label="Item" id="XhQDC6N8RoV4bCvyvq7E-41">
                    <mxCell style="whiteSpace=wrap;html=1;strokeColor=#45A29E;fillColor=#1F2833;" parent="1" vertex="1">
                        <mxGeometry x="500" y="460" width="30" height="30" as="geometry"/>
                    </mxCell>
                </object>
                <object label="Item" id="XhQDC6N8RoV4bCvyvq7E-42">
                    <mxCell style="whiteSpace=wrap;html=1;strokeColor=#45A29E;fillColor=#1F2833;" parent="1" vertex="1">
                        <mxGeometry x="460" y="460" width="30" height="30" as="geometry"/>
                    </mxCell>
                </object>
                <object label="Item" id="XhQDC6N8RoV4bCvyvq7E-43">
                    <mxCell style="whiteSpace=wrap;html=1;strokeColor=#45A29E;fillColor=#1F2833;" parent="1" vertex="1">
                        <mxGeometry x="340" y="460" width="30" height="30" as="geometry"/>
                    </mxCell>
                </object>
                <object label="Item" id="XhQDC6N8RoV4bCvyvq7E-44">
                    <mxCell style="whiteSpace=wrap;html=1;strokeColor=#45A29E;fillColor=#1F2833;" parent="1" vertex="1">
                        <mxGeometry x="420" y="460" width="30" height="30" as="geometry"/>
                    </mxCell>
                </object>
                <object label="Item" id="XhQDC6N8RoV4bCvyvq7E-45">
                    <mxCell style="whiteSpace=wrap;html=1;strokeColor=#45A29E;fillColor=#1F2833;" parent="1" vertex="1">
                        <mxGeometry x="380" y="500" width="30" height="30" as="geometry"/>
                    </mxCell>
                </object>
                <object label="Item" id="XhQDC6N8RoV4bCvyvq7E-46">
                    <mxCell style="whiteSpace=wrap;html=1;strokeColor=#45A29E;fillColor=#1F2833;" parent="1" vertex="1">
                        <mxGeometry x="500" y="500" width="30" height="30" as="geometry"/>
                    </mxCell>
                </object>
                <object label="Item" id="XhQDC6N8RoV4bCvyvq7E-47">
                    <mxCell style="whiteSpace=wrap;html=1;strokeColor=#45A29E;fillColor=#1F2833;" parent="1" vertex="1">
                        <mxGeometry x="460" y="500" width="30" height="30" as="geometry"/>
                    </mxCell>
                </object>
                <object label="Item" id="XhQDC6N8RoV4bCvyvq7E-48">
                    <mxCell style="whiteSpace=wrap;html=1;strokeColor=#45A29E;fillColor=#1F2833;" parent="1" vertex="1">
                        <mxGeometry x="340" y="500" width="30" height="30" as="geometry"/>
                    </mxCell>
                </object>
                <object label="Item" id="XhQDC6N8RoV4bCvyvq7E-49">
                    <mxCell style="whiteSpace=wrap;html=1;strokeColor=#45A29E;fillColor=#1F2833;" parent="1" vertex="1">
                        <mxGeometry x="420" y="500" width="30" height="30" as="geometry"/>
                    </mxCell>
                </object>
                <mxCell id="XhQDC6N8RoV4bCvyvq7E-55" value="The Pokemon Exchange" style="whiteSpace=wrap;html=1;fillColor=#1F2833;strokeColor=#66FCF1;" parent="1" vertex="1">
                    <mxGeometry x="342.5" y="280" width="190" height="20" as="geometry"/>
                </mxCell>
                <object label="Item" id="XhQDC6N8RoV4bCvyvq7E-57">
                    <mxCell style="whiteSpace=wrap;html=1;strokeColor=#45A29E;fillColor=#1F2833;" parent="1" vertex="1">
                        <mxGeometry x="500" y="500" width="30" height="30" as="geometry"/>
                    </mxCell>
                </object>
                <object label="Item" id="XhQDC6N8RoV4bCvyvq7E-58">
                    <mxCell style="whiteSpace=wrap;html=1;strokeColor=#45A29E;fillColor=#1F2833;" parent="1" vertex="1">
                        <mxGeometry x="460" y="500" width="30" height="30" as="geometry"/>
                    </mxCell>
                </object>
                <object label="Item" id="XhQDC6N8RoV4bCvyvq7E-59">
                    <mxCell style="whiteSpace=wrap;html=1;strokeColor=#45A29E;fillColor=#1F2833;" parent="1" vertex="1">
                        <mxGeometry x="420" y="500" width="30" height="30" as="geometry"/>
                    </mxCell>
                </object>
                <object label="Item" id="XhQDC6N8RoV4bCvyvq7E-60">
                    <mxCell style="whiteSpace=wrap;html=1;strokeColor=#45A29E;fillColor=#1F2833;" parent="1" vertex="1">
                        <mxGeometry x="380" y="500" width="30" height="30" as="geometry"/>
                    </mxCell>
                </object>
                <object label="Item" id="XhQDC6N8RoV4bCvyvq7E-61">
                    <mxCell style="whiteSpace=wrap;html=1;strokeColor=#45A29E;fillColor=#1F2833;" parent="1" vertex="1">
                        <mxGeometry x="340" y="500" width="30" height="30" as="geometry"/>
                    </mxCell>
                </object>
                <object label="Item" id="XhQDC6N8RoV4bCvyvq7E-62">
                    <mxCell style="whiteSpace=wrap;html=1;strokeColor=#45A29E;fillColor=#1F2833;" parent="1" vertex="1">
                        <mxGeometry x="340" y="460" width="30" height="30" as="geometry"/>
                    </mxCell>
                </object>
                <object label="Item" id="XhQDC6N8RoV4bCvyvq7E-63">
                    <mxCell style="whiteSpace=wrap;html=1;strokeColor=#45A29E;fillColor=#1F2833;" parent="1" vertex="1">
                        <mxGeometry x="380" y="460" width="30" height="30" as="geometry"/>
                    </mxCell>
                </object>
                <object label="Item" id="XhQDC6N8RoV4bCvyvq7E-64">
                    <mxCell style="whiteSpace=wrap;html=1;strokeColor=#45A29E;fillColor=#1F2833;" parent="1" vertex="1">
                        <mxGeometry x="420" y="460" width="30" height="30" as="geometry"/>
                    </mxCell>
                </object>
                <object label="Item" id="XhQDC6N8RoV4bCvyvq7E-65">
                    <mxCell style="whiteSpace=wrap;html=1;strokeColor=#45A29E;fillColor=#1F2833;" parent="1" vertex="1">
                        <mxGeometry x="460" y="460" width="30" height="30" as="geometry"/>
                    </mxCell>
                </object>
                <object label="Item" id="XhQDC6N8RoV4bCvyvq7E-66">
                    <mxCell style="whiteSpace=wrap;html=1;strokeColor=#45A29E;fillColor=#1F2833;" parent="1" vertex="1">
                        <mxGeometry x="500" y="460" width="30" height="30" as="geometry"/>
                    </mxCell>
                </object>
                <object label="Item" id="XhQDC6N8RoV4bCvyvq7E-67">
                    <mxCell style="whiteSpace=wrap;html=1;strokeColor=#45A29E;fillColor=#1F2833;" parent="1" vertex="1">
                        <mxGeometry x="500" y="420" width="30" height="30" as="geometry"/>
                    </mxCell>
                </object>
                <object label="Item" id="XhQDC6N8RoV4bCvyvq7E-68">
                    <mxCell style="whiteSpace=wrap;html=1;strokeColor=#45A29E;fillColor=#1F2833;" parent="1" vertex="1">
                        <mxGeometry x="460" y="420" width="30" height="30" as="geometry"/>
                    </mxCell>
                </object>
                <mxCell id="XhQDC6N8RoV4bCvyvq7E-71" value="" style="whiteSpace=wrap;html=1;fillColor=#0B0C10;" parent="1" vertex="1">
                    <mxGeometry x="610" y="335" width="205" height="280" as="geometry"/>
                </mxCell>
                <mxCell id="XhQDC6N8RoV4bCvyvq7E-72" value="Nav Bar (Login)" style="whiteSpace=wrap;html=1;fillColor=#1F2833;strokeColor=#45A29E;" parent="1" vertex="1">
                    <mxGeometry x="616.25" y="375" width="190" height="10" as="geometry"/>
                </mxCell>
                <mxCell id="XhQDC6N8RoV4bCvyvq7E-73" value="The Pokemon Exchange" style="whiteSpace=wrap;html=1;fillColor=#1F2833;strokeColor=#66FCF1;" parent="1" vertex="1">
                    <mxGeometry x="618.75" y="345" width="190" height="20" as="geometry"/>
                </mxCell>
                <object label="" id="XhQDC6N8RoV4bCvyvq7E-74">
                    <mxCell style="whiteSpace=wrap;html=1;strokeColor=#45A29E;fillColor=#1F2833;" parent="1" vertex="1">
                        <mxGeometry x="618.75" y="395" width="191.25" height="180" as="geometry"/>
                    </mxCell>
                </object>
                <object label="Item Name" id="XhQDC6N8RoV4bCvyvq7E-75">
                    <mxCell style="whiteSpace=wrap;html=1;strokeColor=#45A29E;fillColor=#1F2833;" parent="1" vertex="1">
                        <mxGeometry x="630" y="405" width="160" height="20" as="geometry"/>
                    </mxCell>
                </object>
                <object label="Item Description" id="XhQDC6N8RoV4bCvyvq7E-76">
                    <mxCell style="whiteSpace=wrap;html=1;strokeColor=#45A29E;fillColor=#1F2833;" parent="1" vertex="1">
                        <mxGeometry x="630" y="435" width="160" height="70" as="geometry"/>
                    </mxCell>
                </object>
                <object label="Item Quantity" id="XhQDC6N8RoV4bCvyvq7E-77">
                    <mxCell style="whiteSpace=wrap;html=1;strokeColor=#45A29E;fillColor=#1F2833;" parent="1" vertex="1">
                        <mxGeometry x="630" y="515" width="160" height="20" as="geometry"/>
                    </mxCell>
                </object>
                <mxCell id="pDI6ZPoX4qIVBJIhAqDQ-5" value="" style="whiteSpace=wrap;html=1;fillColor=#0B0C10;" parent="1" vertex="1">
                    <mxGeometry x="80" y="350" width="205" height="280" as="geometry"/>
                </mxCell>
                <mxCell id="pDI6ZPoX4qIVBJIhAqDQ-6" value="Nav Bar (Login)" style="whiteSpace=wrap;html=1;fillColor=#1F2833;strokeColor=#45A29E;" parent="1" vertex="1">
                    <mxGeometry x="86.25" y="390" width="190" height="10" as="geometry"/>
                </mxCell>
                <mxCell id="pDI6ZPoX4qIVBJIhAqDQ-7" value="The Pokemon Exchange" style="whiteSpace=wrap;html=1;fillColor=#1F2833;strokeColor=#66FCF1;" parent="1" vertex="1">
                    <mxGeometry x="88.75" y="360" width="190" height="20" as="geometry"/>
                </mxCell>
                <object label="" id="pDI6ZPoX4qIVBJIhAqDQ-8">
                    <mxCell style="whiteSpace=wrap;html=1;strokeColor=#45A29E;fillColor=#1F2833;" parent="1" vertex="1">
                        <mxGeometry x="88.75" y="410" width="191.25" height="180" as="geometry"/>
                    </mxCell>
                </object>
                <object label="First Name" id="pDI6ZPoX4qIVBJIhAqDQ-9">
                    <mxCell style="whiteSpace=wrap;html=1;strokeColor=#45A29E;fillColor=#1F2833;" parent="1" vertex="1">
                        <mxGeometry x="100" y="420" width="160" height="20" as="geometry"/>
                    </mxCell>
                </object>
                <mxCell id="pDI6ZPoX4qIVBJIhAqDQ-16" style="edgeStyle=elbowEdgeStyle;html=1;strokeColor=#66FCF1;" parent="1" source="pDI6ZPoX4qIVBJIhAqDQ-11" target="XhQDC6N8RoV4bCvyvq7E-1" edge="1">
                    <mxGeometry relative="1" as="geometry"/>
                </mxCell>
                <object label="Submit" id="pDI6ZPoX4qIVBJIhAqDQ-11">
                    <mxCell style="whiteSpace=wrap;html=1;strokeColor=#45A29E;fillColor=#1F2833;" parent="1" vertex="1">
                        <mxGeometry x="101.25" y="600" width="160" height="20" as="geometry"/>
                    </mxCell>
                </object>
                <object label="Last Name" id="pDI6ZPoX4qIVBJIhAqDQ-12">
                    <mxCell style="whiteSpace=wrap;html=1;strokeColor=#45A29E;fillColor=#1F2833;" parent="1" vertex="1">
                        <mxGeometry x="101.25" y="455" width="160" height="20" as="geometry"/>
                    </mxCell>
                </object>
                <object label="Username" id="pDI6ZPoX4qIVBJIhAqDQ-13">
                    <mxCell style="whiteSpace=wrap;html=1;strokeColor=#45A29E;fillColor=#1F2833;" parent="1" vertex="1">
                        <mxGeometry x="100" y="495" width="160" height="20" as="geometry"/>
                    </mxCell>
                </object>
                <object label="Password" id="pDI6ZPoX4qIVBJIhAqDQ-14">
                    <mxCell style="whiteSpace=wrap;html=1;strokeColor=#45A29E;fillColor=#1F2833;" parent="1" vertex="1">
                        <mxGeometry x="100" y="530" width="160" height="20" as="geometry"/>
                    </mxCell>
                </object>
            </root>
        </mxGraphModel>
    </diagram>
    <diagram id="kSnwPJumVlJChaEkjxa4" name="User View">
        <mxGraphModel dx="869" dy="235" grid="1" gridSize="10" guides="1" tooltips="1" connect="1" arrows="1" fold="1" page="1" pageScale="1" pageWidth="850" pageHeight="1100" math="0" shadow="0">
            <root>
                <mxCell id="0"/>
                <mxCell id="1" parent="0"/>
                <mxCell id="kf3U5FdoiFHYD40asA9v-1" value="" style="whiteSpace=wrap;html=1;fillColor=#0B0C10;" parent="1" vertex="1">
                    <mxGeometry x="335" y="270" width="205" height="280" as="geometry"/>
                </mxCell>
                <object label="Item" id="kf3U5FdoiFHYD40asA9v-2">
                    <mxCell style="whiteSpace=wrap;html=1;strokeColor=#45A29E;fillColor=#1F2833;" parent="1" vertex="1">
                        <mxGeometry x="380" y="340" width="30" height="30" as="geometry"/>
                    </mxCell>
                </object>
                <mxCell id="kf3U5FdoiFHYD40asA9v-3" value="" style="edgeStyle=isometricEdgeStyle;html=1;strokeColor=#66FCF1;elbow=vertical;exitX=0.75;exitY=1;exitDx=0;exitDy=0;entryX=1.016;entryY=0.146;entryDx=0;entryDy=0;entryPerimeter=0;" parent="1" source="kf3U5FdoiFHYD40asA9v-31" edge="1" target="kf3U5FdoiFHYD40asA9v-1">
                    <mxGeometry relative="1" as="geometry">
                        <mxPoint x="540" y="340.0000000000001" as="targetPoint"/>
                        <Array as="points"/>
                    </mxGeometry>
                </mxCell>
                <mxCell id="kf3U5FdoiFHYD40asA9v-4" value="" style="edgeStyle=elbowEdgeStyle;elbow=vertical;html=1;strokeColor=#66FCF1;entryX=0.75;entryY=0;entryDx=0;entryDy=0;exitX=0.317;exitY=1.416;exitDx=0;exitDy=0;exitPerimeter=0;" parent="1" source="kf3U5FdoiFHYD40asA9v-5" target="kf3U5FdoiFHYD40asA9v-51" edge="1">
                    <mxGeometry relative="1" as="geometry"/>
                </mxCell>
                <mxCell id="-0_yFZOOQrnlFLZT6RDd-25" style="edgeStyle=orthogonalEdgeStyle;curved=1;html=1;entryX=1.002;entryY=0.145;entryDx=0;entryDy=0;entryPerimeter=0;exitX=1;exitY=0.5;exitDx=0;exitDy=0;" edge="1" parent="1" source="kf3U5FdoiFHYD40asA9v-5" target="-0_yFZOOQrnlFLZT6RDd-1">
                    <mxGeometry relative="1" as="geometry">
                        <Array as="points">
                            <mxPoint x="580" y="315"/>
                            <mxPoint x="580" y="140"/>
                            <mxPoint x="308" y="140"/>
                            <mxPoint x="308" y="51"/>
                        </Array>
                    </mxGeometry>
                </mxCell>
                <mxCell id="kf3U5FdoiFHYD40asA9v-5" value="Nav Bar (Login) (View) (New Item)" style="whiteSpace=wrap;html=1;fillColor=#1F2833;strokeColor=#45A29E;" parent="1" vertex="1">
                    <mxGeometry x="340" y="310" width="190" height="10" as="geometry"/>
                </mxCell>
                <mxCell id="kf3U5FdoiFHYD40asA9v-6" style="edgeStyle=none;html=1;strokeColor=#66FCF1;" parent="1" source="kf3U5FdoiFHYD40asA9v-7" edge="1">
                    <mxGeometry relative="1" as="geometry">
                        <mxPoint x="610" y="340.0000000000001" as="targetPoint"/>
                    </mxGeometry>
                </mxCell>
                <object label="Item" id="kf3U5FdoiFHYD40asA9v-7">
                    <mxCell style="whiteSpace=wrap;html=1;strokeColor=#45A29E;fillColor=#1F2833;" parent="1" vertex="1">
                        <mxGeometry x="500" y="340" width="30" height="30" as="geometry"/>
                    </mxCell>
                </object>
                <object label="Item" id="kf3U5FdoiFHYD40asA9v-8">
                    <mxCell style="whiteSpace=wrap;html=1;strokeColor=#45A29E;fillColor=#1F2833;" parent="1" vertex="1">
                        <mxGeometry x="460" y="340" width="30" height="30" as="geometry"/>
                    </mxCell>
                </object>
                <object label="Item" id="kf3U5FdoiFHYD40asA9v-9">
                    <mxCell style="whiteSpace=wrap;html=1;strokeColor=#45A29E;fillColor=#1F2833;" parent="1" vertex="1">
                        <mxGeometry x="340" y="340" width="30" height="30" as="geometry"/>
                    </mxCell>
                </object>
                <object label="Item" id="kf3U5FdoiFHYD40asA9v-10">
                    <mxCell style="whiteSpace=wrap;html=1;strokeColor=#45A29E;fillColor=#1F2833;" parent="1" vertex="1">
                        <mxGeometry x="420" y="340" width="30" height="30" as="geometry"/>
                    </mxCell>
                </object>
                <object label="Item" id="kf3U5FdoiFHYD40asA9v-11">
                    <mxCell style="whiteSpace=wrap;html=1;strokeColor=#45A29E;fillColor=#1F2833;" parent="1" vertex="1">
                        <mxGeometry x="380" y="380" width="30" height="30" as="geometry"/>
                    </mxCell>
                </object>
                <object label="Item" id="kf3U5FdoiFHYD40asA9v-12">
                    <mxCell style="whiteSpace=wrap;html=1;strokeColor=#45A29E;fillColor=#1F2833;" parent="1" vertex="1">
                        <mxGeometry x="500" y="380" width="30" height="30" as="geometry"/>
                    </mxCell>
                </object>
                <object label="Item" id="kf3U5FdoiFHYD40asA9v-13">
                    <mxCell style="whiteSpace=wrap;html=1;strokeColor=#45A29E;fillColor=#1F2833;" parent="1" vertex="1">
                        <mxGeometry x="460" y="380" width="30" height="30" as="geometry"/>
                    </mxCell>
                </object>
                <object label="Item" id="kf3U5FdoiFHYD40asA9v-14">
                    <mxCell style="whiteSpace=wrap;html=1;strokeColor=#45A29E;fillColor=#1F2833;" parent="1" vertex="1">
                        <mxGeometry x="340" y="380" width="30" height="30" as="geometry"/>
                    </mxCell>
                </object>
                <object label="Item" id="kf3U5FdoiFHYD40asA9v-15">
                    <mxCell style="whiteSpace=wrap;html=1;strokeColor=#45A29E;fillColor=#1F2833;" parent="1" vertex="1">
                        <mxGeometry x="420" y="380" width="30" height="30" as="geometry"/>
                    </mxCell>
                </object>
                <object label="Item" id="kf3U5FdoiFHYD40asA9v-16">
                    <mxCell style="whiteSpace=wrap;html=1;strokeColor=#45A29E;fillColor=#1F2833;" parent="1" vertex="1">
                        <mxGeometry x="380" y="420" width="30" height="30" as="geometry"/>
                    </mxCell>
                </object>
                <object label="Item" id="kf3U5FdoiFHYD40asA9v-17">
                    <mxCell style="whiteSpace=wrap;html=1;strokeColor=#45A29E;fillColor=#1F2833;" parent="1" vertex="1">
                        <mxGeometry x="500" y="420" width="30" height="30" as="geometry"/>
                    </mxCell>
                </object>
                <object label="Item" id="kf3U5FdoiFHYD40asA9v-18">
                    <mxCell style="whiteSpace=wrap;html=1;strokeColor=#45A29E;fillColor=#1F2833;" parent="1" vertex="1">
                        <mxGeometry x="460" y="420" width="30" height="30" as="geometry"/>
                    </mxCell>
                </object>
                <object label="Item" id="kf3U5FdoiFHYD40asA9v-19">
                    <mxCell style="whiteSpace=wrap;html=1;strokeColor=#45A29E;fillColor=#1F2833;" parent="1" vertex="1">
                        <mxGeometry x="340" y="420" width="30" height="30" as="geometry"/>
                    </mxCell>
                </object>
                <object label="Item" id="kf3U5FdoiFHYD40asA9v-20">
                    <mxCell style="whiteSpace=wrap;html=1;strokeColor=#45A29E;fillColor=#1F2833;" parent="1" vertex="1">
                        <mxGeometry x="420" y="420" width="30" height="30" as="geometry"/>
                    </mxCell>
                </object>
                <object label="Item" id="kf3U5FdoiFHYD40asA9v-21">
                    <mxCell style="whiteSpace=wrap;html=1;strokeColor=#45A29E;fillColor=#1F2833;" parent="1" vertex="1">
                        <mxGeometry x="380" y="460" width="30" height="30" as="geometry"/>
                    </mxCell>
                </object>
                <object label="Item" id="kf3U5FdoiFHYD40asA9v-22">
                    <mxCell style="whiteSpace=wrap;html=1;strokeColor=#45A29E;fillColor=#1F2833;" parent="1" vertex="1">
                        <mxGeometry x="500" y="460" width="30" height="30" as="geometry"/>
                    </mxCell>
                </object>
                <object label="Item" id="kf3U5FdoiFHYD40asA9v-23">
                    <mxCell style="whiteSpace=wrap;html=1;strokeColor=#45A29E;fillColor=#1F2833;" parent="1" vertex="1">
                        <mxGeometry x="460" y="460" width="30" height="30" as="geometry"/>
                    </mxCell>
                </object>
                <object label="Item" id="kf3U5FdoiFHYD40asA9v-24">
                    <mxCell style="whiteSpace=wrap;html=1;strokeColor=#45A29E;fillColor=#1F2833;" parent="1" vertex="1">
                        <mxGeometry x="340" y="460" width="30" height="30" as="geometry"/>
                    </mxCell>
                </object>
                <object label="Item" id="kf3U5FdoiFHYD40asA9v-25">
                    <mxCell style="whiteSpace=wrap;html=1;strokeColor=#45A29E;fillColor=#1F2833;" parent="1" vertex="1">
                        <mxGeometry x="420" y="460" width="30" height="30" as="geometry"/>
                    </mxCell>
                </object>
                <object label="Item" id="kf3U5FdoiFHYD40asA9v-26">
                    <mxCell style="whiteSpace=wrap;html=1;strokeColor=#45A29E;fillColor=#1F2833;" parent="1" vertex="1">
                        <mxGeometry x="380" y="500" width="30" height="30" as="geometry"/>
                    </mxCell>
                </object>
                <object label="Item" id="kf3U5FdoiFHYD40asA9v-27">
                    <mxCell style="whiteSpace=wrap;html=1;strokeColor=#45A29E;fillColor=#1F2833;" parent="1" vertex="1">
                        <mxGeometry x="500" y="500" width="30" height="30" as="geometry"/>
                    </mxCell>
                </object>
                <object label="Item" id="kf3U5FdoiFHYD40asA9v-28">
                    <mxCell style="whiteSpace=wrap;html=1;strokeColor=#45A29E;fillColor=#1F2833;" parent="1" vertex="1">
                        <mxGeometry x="460" y="500" width="30" height="30" as="geometry"/>
                    </mxCell>
                </object>
                <object label="Item" id="kf3U5FdoiFHYD40asA9v-29">
                    <mxCell style="whiteSpace=wrap;html=1;strokeColor=#45A29E;fillColor=#1F2833;" parent="1" vertex="1">
                        <mxGeometry x="340" y="500" width="30" height="30" as="geometry"/>
                    </mxCell>
                </object>
                <object label="Item" id="kf3U5FdoiFHYD40asA9v-30">
                    <mxCell style="whiteSpace=wrap;html=1;strokeColor=#45A29E;fillColor=#1F2833;" parent="1" vertex="1">
                        <mxGeometry x="420" y="500" width="30" height="30" as="geometry"/>
                    </mxCell>
                </object>
                <mxCell id="kf3U5FdoiFHYD40asA9v-31" value="The Pokemon Exchange" style="whiteSpace=wrap;html=1;fillColor=#1F2833;strokeColor=#66FCF1;" parent="1" vertex="1">
                    <mxGeometry x="342.5" y="280" width="190" height="20" as="geometry"/>
                </mxCell>
                <object label="Item" id="kf3U5FdoiFHYD40asA9v-32">
                    <mxCell style="whiteSpace=wrap;html=1;strokeColor=#45A29E;fillColor=#1F2833;" parent="1" vertex="1">
                        <mxGeometry x="500" y="500" width="30" height="30" as="geometry"/>
                    </mxCell>
                </object>
                <object label="Item" id="kf3U5FdoiFHYD40asA9v-33">
                    <mxCell style="whiteSpace=wrap;html=1;strokeColor=#45A29E;fillColor=#1F2833;" parent="1" vertex="1">
                        <mxGeometry x="460" y="500" width="30" height="30" as="geometry"/>
                    </mxCell>
                </object>
                <object label="Item" id="kf3U5FdoiFHYD40asA9v-34">
                    <mxCell style="whiteSpace=wrap;html=1;strokeColor=#45A29E;fillColor=#1F2833;" parent="1" vertex="1">
                        <mxGeometry x="420" y="500" width="30" height="30" as="geometry"/>
                    </mxCell>
                </object>
                <object label="Item" id="kf3U5FdoiFHYD40asA9v-35">
                    <mxCell style="whiteSpace=wrap;html=1;strokeColor=#45A29E;fillColor=#1F2833;" parent="1" vertex="1">
                        <mxGeometry x="380" y="500" width="30" height="30" as="geometry"/>
                    </mxCell>
                </object>
                <object label="Item" id="kf3U5FdoiFHYD40asA9v-36">
                    <mxCell style="whiteSpace=wrap;html=1;strokeColor=#45A29E;fillColor=#1F2833;" parent="1" vertex="1">
                        <mxGeometry x="340" y="500" width="30" height="30" as="geometry"/>
                    </mxCell>
                </object>
                <object label="Item" id="kf3U5FdoiFHYD40asA9v-37">
                    <mxCell style="whiteSpace=wrap;html=1;strokeColor=#45A29E;fillColor=#1F2833;" parent="1" vertex="1">
                        <mxGeometry x="340" y="460" width="30" height="30" as="geometry"/>
                    </mxCell>
                </object>
                <object label="Item" id="kf3U5FdoiFHYD40asA9v-38">
                    <mxCell style="whiteSpace=wrap;html=1;strokeColor=#45A29E;fillColor=#1F2833;" parent="1" vertex="1">
                        <mxGeometry x="380" y="460" width="30" height="30" as="geometry"/>
                    </mxCell>
                </object>
                <object label="Item" id="kf3U5FdoiFHYD40asA9v-39">
                    <mxCell style="whiteSpace=wrap;html=1;strokeColor=#45A29E;fillColor=#1F2833;" parent="1" vertex="1">
                        <mxGeometry x="420" y="460" width="30" height="30" as="geometry"/>
                    </mxCell>
                </object>
                <object label="Item" id="kf3U5FdoiFHYD40asA9v-40">
                    <mxCell style="whiteSpace=wrap;html=1;strokeColor=#45A29E;fillColor=#1F2833;" parent="1" vertex="1">
                        <mxGeometry x="460" y="460" width="30" height="30" as="geometry"/>
                    </mxCell>
                </object>
                <object label="Item" id="kf3U5FdoiFHYD40asA9v-41">
                    <mxCell style="whiteSpace=wrap;html=1;strokeColor=#45A29E;fillColor=#1F2833;" parent="1" vertex="1">
                        <mxGeometry x="500" y="460" width="30" height="30" as="geometry"/>
                    </mxCell>
                </object>
                <object label="Item" id="kf3U5FdoiFHYD40asA9v-42">
                    <mxCell style="whiteSpace=wrap;html=1;strokeColor=#45A29E;fillColor=#1F2833;" parent="1" vertex="1">
                        <mxGeometry x="500" y="420" width="30" height="30" as="geometry"/>
                    </mxCell>
                </object>
                <object label="Item" id="kf3U5FdoiFHYD40asA9v-43">
                    <mxCell style="whiteSpace=wrap;html=1;strokeColor=#45A29E;fillColor=#1F2833;" parent="1" vertex="1">
                        <mxGeometry x="460" y="420" width="30" height="30" as="geometry"/>
                    </mxCell>
                </object>
                <mxCell id="kf3U5FdoiFHYD40asA9v-44" value="" style="whiteSpace=wrap;html=1;fillColor=#0B0C10;" parent="1" vertex="1">
                    <mxGeometry x="610" y="335" width="205" height="280" as="geometry"/>
                </mxCell>
                <mxCell id="kf3U5FdoiFHYD40asA9v-45" value="Nav Bar (Login) (New Item)" style="whiteSpace=wrap;html=1;fillColor=#1F2833;strokeColor=#45A29E;" parent="1" vertex="1">
                    <mxGeometry x="616.25" y="375" width="190" height="10" as="geometry"/>
                </mxCell>
                <mxCell id="kf3U5FdoiFHYD40asA9v-46" value="The Pokemon Exchange" style="whiteSpace=wrap;html=1;fillColor=#1F2833;strokeColor=#66FCF1;" parent="1" vertex="1">
                    <mxGeometry x="618.75" y="345" width="190" height="20" as="geometry"/>
                </mxCell>
                <object label="" id="kf3U5FdoiFHYD40asA9v-47">
                    <mxCell style="whiteSpace=wrap;html=1;strokeColor=#45A29E;fillColor=#1F2833;" parent="1" vertex="1">
                        <mxGeometry x="618.75" y="395" width="191.25" height="180" as="geometry"/>
                    </mxCell>
                </object>
                <object label="Item Name" id="kf3U5FdoiFHYD40asA9v-48">
                    <mxCell style="whiteSpace=wrap;html=1;strokeColor=#45A29E;fillColor=#1F2833;" parent="1" vertex="1">
                        <mxGeometry x="630" y="405" width="160" height="20" as="geometry"/>
                    </mxCell>
                </object>
                <object label="Item Description" id="kf3U5FdoiFHYD40asA9v-49">
                    <mxCell style="whiteSpace=wrap;html=1;strokeColor=#45A29E;fillColor=#1F2833;" parent="1" vertex="1">
                        <mxGeometry x="630" y="435" width="160" height="70" as="geometry"/>
                    </mxCell>
                </object>
                <object label="Item Quantity" id="kf3U5FdoiFHYD40asA9v-50">
                    <mxCell style="whiteSpace=wrap;html=1;strokeColor=#45A29E;fillColor=#1F2833;" parent="1" vertex="1">
                        <mxGeometry x="630" y="515" width="160" height="20" as="geometry"/>
                    </mxCell>
                </object>
                <mxCell id="kf3U5FdoiFHYD40asA9v-51" value="" style="whiteSpace=wrap;html=1;fillColor=#0B0C10;" parent="1" vertex="1">
                    <mxGeometry x="80" y="350" width="205" height="280" as="geometry"/>
                </mxCell>
                <mxCell id="kf3U5FdoiFHYD40asA9v-52" value="Nav Bar (Login) (New Item)" style="whiteSpace=wrap;html=1;fillColor=#1F2833;strokeColor=#45A29E;" parent="1" vertex="1">
                    <mxGeometry x="86.25" y="390" width="190" height="10" as="geometry"/>
                </mxCell>
                <mxCell id="kf3U5FdoiFHYD40asA9v-53" value="The Pokemon Exchange" style="whiteSpace=wrap;html=1;fillColor=#1F2833;strokeColor=#66FCF1;" parent="1" vertex="1">
                    <mxGeometry x="88.75" y="360" width="190" height="20" as="geometry"/>
                </mxCell>
                <object label="" id="kf3U5FdoiFHYD40asA9v-54">
                    <mxCell style="whiteSpace=wrap;html=1;strokeColor=#45A29E;fillColor=#1F2833;" parent="1" vertex="1">
                        <mxGeometry x="88.75" y="410" width="191.25" height="180" as="geometry"/>
                    </mxCell>
                </object>
                <object label="First Name" id="kf3U5FdoiFHYD40asA9v-55">
                    <mxCell style="whiteSpace=wrap;html=1;strokeColor=#45A29E;fillColor=#1F2833;" parent="1" vertex="1">
                        <mxGeometry x="100" y="420" width="160" height="20" as="geometry"/>
                    </mxCell>
                </object>
                <mxCell id="kf3U5FdoiFHYD40asA9v-56" style="edgeStyle=elbowEdgeStyle;html=1;strokeColor=#66FCF1;" parent="1" source="kf3U5FdoiFHYD40asA9v-57" target="kf3U5FdoiFHYD40asA9v-1" edge="1">
                    <mxGeometry relative="1" as="geometry"/>
                </mxCell>
                <object label="Submit" id="kf3U5FdoiFHYD40asA9v-57">
                    <mxCell style="whiteSpace=wrap;html=1;strokeColor=#45A29E;fillColor=#1F2833;" parent="1" vertex="1">
                        <mxGeometry x="101.25" y="600" width="160" height="20" as="geometry"/>
                    </mxCell>
                </object>
                <object label="Last Name" id="kf3U5FdoiFHYD40asA9v-58">
                    <mxCell style="whiteSpace=wrap;html=1;strokeColor=#45A29E;fillColor=#1F2833;" parent="1" vertex="1">
                        <mxGeometry x="101.25" y="455" width="160" height="20" as="geometry"/>
                    </mxCell>
                </object>
                <object label="Username" id="kf3U5FdoiFHYD40asA9v-59">
                    <mxCell style="whiteSpace=wrap;html=1;strokeColor=#45A29E;fillColor=#1F2833;" parent="1" vertex="1">
                        <mxGeometry x="100" y="495" width="160" height="20" as="geometry"/>
                    </mxCell>
                </object>
                <object label="Password" id="kf3U5FdoiFHYD40asA9v-60">
                    <mxCell style="whiteSpace=wrap;html=1;strokeColor=#45A29E;fillColor=#1F2833;" parent="1" vertex="1">
                        <mxGeometry x="100" y="530" width="160" height="20" as="geometry"/>
                    </mxCell>
                </object>
                <mxCell id="kf3U5FdoiFHYD40asA9v-65" style="edgeStyle=elbowEdgeStyle;html=1;entryX=1.013;entryY=0.686;entryDx=0;entryDy=0;entryPerimeter=0;strokeColor=#66FCF1;" parent="1" source="kf3U5FdoiFHYD40asA9v-61" target="kf3U5FdoiFHYD40asA9v-1" edge="1">
                    <mxGeometry relative="1" as="geometry"/>
                </mxCell>
                <object label="Delete" id="kf3U5FdoiFHYD40asA9v-61">
                    <mxCell style="whiteSpace=wrap;html=1;strokeColor=#45A29E;fillColor=#1F2833;" parent="1" vertex="1">
                        <mxGeometry x="618.75" y="580" width="91.25" height="20" as="geometry"/>
                    </mxCell>
                </object>
                <mxCell id="-0_yFZOOQrnlFLZT6RDd-19" style="edgeStyle=orthogonalEdgeStyle;curved=1;html=1;entryX=1;entryY=1;entryDx=0;entryDy=0;exitX=1;exitY=0.25;exitDx=0;exitDy=0;" edge="1" parent="1" source="kf3U5FdoiFHYD40asA9v-62" target="-0_yFZOOQrnlFLZT6RDd-10">
                    <mxGeometry relative="1" as="geometry"/>
                </mxCell>
                <object label="Edit" id="kf3U5FdoiFHYD40asA9v-62">
                    <mxCell style="whiteSpace=wrap;html=1;strokeColor=#45A29E;fillColor=#1F2833;" parent="1" vertex="1">
                        <mxGeometry x="720" y="580" width="88.75" height="20" as="geometry"/>
                    </mxCell>
                </object>
                <mxCell id="-0_yFZOOQrnlFLZT6RDd-1" value="" style="whiteSpace=wrap;html=1;fillColor=#0B0C10;" vertex="1" parent="1">
                    <mxGeometry x="71.25" y="10" width="205" height="280" as="geometry"/>
                </mxCell>
                <mxCell id="-0_yFZOOQrnlFLZT6RDd-2" value="Nav Bar (Login) (New Item)" style="whiteSpace=wrap;html=1;fillColor=#1F2833;strokeColor=#45A29E;" vertex="1" parent="1">
                    <mxGeometry x="77.5" y="50" width="190" height="10" as="geometry"/>
                </mxCell>
                <mxCell id="-0_yFZOOQrnlFLZT6RDd-3" value="The Pokemon Exchange" style="whiteSpace=wrap;html=1;fillColor=#1F2833;strokeColor=#66FCF1;" vertex="1" parent="1">
                    <mxGeometry x="80" y="20" width="190" height="20" as="geometry"/>
                </mxCell>
                <object label="" id="-0_yFZOOQrnlFLZT6RDd-4">
                    <mxCell style="whiteSpace=wrap;html=1;strokeColor=#45A29E;fillColor=#1F2833;" vertex="1" parent="1">
                        <mxGeometry x="80" y="70" width="191.25" height="180" as="geometry"/>
                    </mxCell>
                </object>
                <object label="First Name" id="-0_yFZOOQrnlFLZT6RDd-5">
                    <mxCell style="whiteSpace=wrap;html=1;strokeColor=#45A29E;fillColor=#1F2833;" vertex="1" parent="1">
                        <mxGeometry x="91.25" y="80" width="160" height="20" as="geometry"/>
                    </mxCell>
                </object>
                <mxCell id="-0_yFZOOQrnlFLZT6RDd-27" style="edgeStyle=orthogonalEdgeStyle;curved=1;html=1;entryX=0.007;entryY=0.107;entryDx=0;entryDy=0;entryPerimeter=0;" edge="1" parent="1" source="-0_yFZOOQrnlFLZT6RDd-6" target="kf3U5FdoiFHYD40asA9v-1">
                    <mxGeometry relative="1" as="geometry"/>
                </mxCell>
                <object label="Submit" id="-0_yFZOOQrnlFLZT6RDd-6">
                    <mxCell style="whiteSpace=wrap;html=1;strokeColor=#45A29E;fillColor=#1F2833;" vertex="1" parent="1">
                        <mxGeometry x="92.5" y="260" width="160" height="20" as="geometry"/>
                    </mxCell>
                </object>
                <object label="Last Name" id="-0_yFZOOQrnlFLZT6RDd-7">
                    <mxCell style="whiteSpace=wrap;html=1;strokeColor=#45A29E;fillColor=#1F2833;" vertex="1" parent="1">
                        <mxGeometry x="92.5" y="115" width="160" height="20" as="geometry"/>
                    </mxCell>
                </object>
                <object label="Username" id="-0_yFZOOQrnlFLZT6RDd-8">
                    <mxCell style="whiteSpace=wrap;html=1;strokeColor=#45A29E;fillColor=#1F2833;" vertex="1" parent="1">
                        <mxGeometry x="91.25" y="155" width="160" height="20" as="geometry"/>
                    </mxCell>
                </object>
                <object label="Password" id="-0_yFZOOQrnlFLZT6RDd-9">
                    <mxCell style="whiteSpace=wrap;html=1;strokeColor=#45A29E;fillColor=#1F2833;" vertex="1" parent="1">
                        <mxGeometry x="91.25" y="190" width="160" height="20" as="geometry"/>
                    </mxCell>
                </object>
                <mxCell id="-0_yFZOOQrnlFLZT6RDd-10" value="" style="whiteSpace=wrap;html=1;fillColor=#0B0C10;" vertex="1" parent="1">
                    <mxGeometry x="630" y="30" width="205" height="280" as="geometry"/>
                </mxCell>
                <mxCell id="-0_yFZOOQrnlFLZT6RDd-11" value="Nav Bar (Login) (New Item)" style="whiteSpace=wrap;html=1;fillColor=#1F2833;strokeColor=#45A29E;" vertex="1" parent="1">
                    <mxGeometry x="636.25" y="70" width="190" height="10" as="geometry"/>
                </mxCell>
                <mxCell id="-0_yFZOOQrnlFLZT6RDd-12" value="The Pokemon Exchange" style="whiteSpace=wrap;html=1;fillColor=#1F2833;strokeColor=#66FCF1;" vertex="1" parent="1">
                    <mxGeometry x="638.75" y="40" width="190" height="20" as="geometry"/>
                </mxCell>
                <object label="" id="-0_yFZOOQrnlFLZT6RDd-13">
                    <mxCell style="whiteSpace=wrap;html=1;strokeColor=#45A29E;fillColor=#1F2833;" vertex="1" parent="1">
                        <mxGeometry x="638.75" y="90" width="191.25" height="180" as="geometry"/>
                    </mxCell>
                </object>
                <mxCell id="-0_yFZOOQrnlFLZT6RDd-24" style="edgeStyle=orthogonalEdgeStyle;curved=1;html=1;" edge="1" parent="1" source="-0_yFZOOQrnlFLZT6RDd-15" target="kf3U5FdoiFHYD40asA9v-44">
                    <mxGeometry relative="1" as="geometry"/>
                </mxCell>
                <object label="Submit" id="-0_yFZOOQrnlFLZT6RDd-15">
                    <mxCell style="whiteSpace=wrap;html=1;strokeColor=#45A29E;fillColor=#1F2833;" vertex="1" parent="1">
                        <mxGeometry x="651.25" y="280" width="160" height="20" as="geometry"/>
                    </mxCell>
                </object>
                <object label="Item Name" id="-0_yFZOOQrnlFLZT6RDd-20">
                    <mxCell style="whiteSpace=wrap;html=1;strokeColor=#45A29E;fillColor=#1F2833;" vertex="1" parent="1">
                        <mxGeometry x="655" y="115" width="160" height="20" as="geometry"/>
                    </mxCell>
                </object>
                <object label="Item Description" id="-0_yFZOOQrnlFLZT6RDd-21">
                    <mxCell style="whiteSpace=wrap;html=1;strokeColor=#45A29E;fillColor=#1F2833;" vertex="1" parent="1">
                        <mxGeometry x="655" y="145" width="160" height="70" as="geometry"/>
                    </mxCell>
                </object>
                <object label="Item Quantity" id="-0_yFZOOQrnlFLZT6RDd-22">
                    <mxCell style="whiteSpace=wrap;html=1;strokeColor=#45A29E;fillColor=#1F2833;" vertex="1" parent="1">
                        <mxGeometry x="655" y="225" width="160" height="20" as="geometry"/>
                    </mxCell>
                </object>
            </root>
        </mxGraphModel>
    </diagram>
</mxfile>